TITLE ""
FILE "LR_black_phrase_A09.mp3" MP3
  TRACK 01 AUDIO
    TITLE "LR_black_phrase_A09_001"
    INDEX 01 00:00:00
  TRACK 02 AUDIO
    TITLE "LR_black_phrase_A09_002"
    INDEX 01 00:00:14
  TRACK 03 AUDIO
    TITLE "LR_black_phrase_A09_003"
    INDEX 01 00:01:41
  TRACK 04 AUDIO
    TITLE "LR_black_phrase_A09_004"
    INDEX 01 00:02:07
  TRACK 05 AUDIO
    TITLE "LR_black_phrase_A09_005"
    INDEX 01 00:04:75
  TRACK 06 AUDIO
    TITLE "LR_black_phrase_A09_006"
    INDEX 01 00:05:74
  TRACK 07 AUDIO
    TITLE "LR_black_phrase_A09_007"
    INDEX 01 00:07:55
  TRACK 08 AUDIO
    TITLE "LR_black_phrase_A09_008"
    INDEX 01 00:08:18
  TRACK 09 AUDIO
    TITLE "LR_black_phrase_A09_009"
    INDEX 01 00:10:22
  TRACK 10 AUDIO
    TITLE "LR_black_phrase_A09_010"
    INDEX 01 00:10:50
  TRACK 11 AUDIO
    TITLE "LR_black_phrase_A09_011"
    INDEX 01 00:12:55
  TRACK 12 AUDIO
    TITLE "LR_black_phrase_A09_012"
    INDEX 01 00:13:56
  TRACK 13 AUDIO
    TITLE "LR_black_phrase_A09_013"
    INDEX 01 00:14:73
  TRACK 14 AUDIO
    TITLE "LR_black_phrase_A09_014"
    INDEX 01 00:15:37
  TRACK 15 AUDIO
    TITLE "LR_black_phrase_A09_015"
    INDEX 01 00:16:60
  TRACK 16 AUDIO
    TITLE "LR_black_phrase_A09_016"
    INDEX 01 00:17:60
  TRACK 17 AUDIO
    TITLE "LR_black_phrase_A09_017"
    INDEX 01 00:19:15
  TRACK 18 AUDIO
    TITLE "LR_black_phrase_A09_018"
    INDEX 01 00:19:55
  TRACK 19 AUDIO
    TITLE "LR_black_phrase_A09_019"
    INDEX 01 00:21:40
  TRACK 20 AUDIO
    TITLE "LR_black_phrase_A09_020"
    INDEX 01 00:21:67
  TRACK 21 AUDIO
    TITLE "LR_black_phrase_A09_021"
    INDEX 01 00:23:52
  TRACK 22 AUDIO
    TITLE "LR_black_phrase_A09_022"
    INDEX 01 00:24:54
  TRACK 23 AUDIO
    TITLE "LR_black_phrase_A09_023"
    INDEX 01 00:26:02
  TRACK 24 AUDIO
    TITLE "LR_black_phrase_A09_024"
    INDEX 01 00:26:41
  TRACK 25 AUDIO
    TITLE "LR_black_phrase_A09_025"
    INDEX 01 00:28:60
  TRACK 26 AUDIO
    TITLE "LR_black_phrase_A09_026"
    INDEX 01 00:29:57
  TRACK 27 AUDIO
    TITLE "LR_black_phrase_A09_027"
    INDEX 01 00:31:48
  TRACK 28 AUDIO
    TITLE "LR_black_phrase_A09_028"
    INDEX 01 00:32:14
  TRACK 29 AUDIO
    TITLE "LR_black_phrase_A09_029"
    INDEX 01 00:34:19
  TRACK 30 AUDIO
    TITLE "LR_black_phrase_A09_030"
    INDEX 01 00:34:50
  TRACK 31 AUDIO
    TITLE "LR_black_phrase_A09_031"
    INDEX 01 00:36:57
  TRACK 32 AUDIO
    TITLE "LR_black_phrase_A09_032"
    INDEX 01 00:37:55
  TRACK 33 AUDIO
    TITLE "LR_black_phrase_A09_033"
    INDEX 01 00:39:14
  TRACK 34 AUDIO
    TITLE "LR_black_phrase_A09_034"
    INDEX 01 00:39:44
  TRACK 35 AUDIO
    TITLE "LR_black_phrase_A09_035"
    INDEX 01 00:41:56
  TRACK 36 AUDIO
    TITLE "LR_black_phrase_A09_036"
    INDEX 01 00:42:56
  TRACK 37 AUDIO
    TITLE "LR_black_phrase_A09_037"
    INDEX 01 00:44:70
  TRACK 38 AUDIO
    TITLE "LR_black_phrase_A09_038"
    INDEX 01 00:45:31
  TRACK 39 AUDIO
    TITLE "LR_black_phrase_A09_039"
    INDEX 01 00:48:31
  TRACK 40 AUDIO
    TITLE "LR_black_phrase_A09_040"
    INDEX 01 00:48:58
  TRACK 41 AUDIO
    TITLE "LR_black_phrase_A09_041"
    INDEX 01 00:51:59
  TRACK 42 AUDIO
    TITLE "LR_black_phrase_A09_042"
    INDEX 01 00:52:60
  TRACK 43 AUDIO
    TITLE "LR_black_phrase_A09_043"
    INDEX 01 00:54:12
  TRACK 44 AUDIO
    TITLE "LR_black_phrase_A09_044"
    INDEX 01 00:54:49
  TRACK 45 AUDIO
    TITLE "LR_black_phrase_A09_045"
    INDEX 01 00:55:58
  TRACK 46 AUDIO
    TITLE "LR_black_phrase_A09_046"
    INDEX 01 00:56:56
  TRACK 47 AUDIO
    TITLE "LR_black_phrase_A09_047"
    INDEX 01 00:58:74
  TRACK 48 AUDIO
    TITLE "LR_black_phrase_A09_048"
    INDEX 01 00:59:35
  TRACK 49 AUDIO
    TITLE "LR_black_phrase_A09_049"
    INDEX 01 01:01:69
  TRACK 50 AUDIO
    TITLE "LR_black_phrase_A09_050"
    INDEX 01 01:02:11
  TRACK 51 AUDIO
    TITLE "LR_black_phrase_A09_051"
    INDEX 01 01:04:48
  TRACK 52 AUDIO
    TITLE "LR_black_phrase_A09_052"
    INDEX 01 01:05:41
  TRACK 53 AUDIO
    TITLE "LR_black_phrase_A09_053"
    INDEX 01 01:06:64
  TRACK 54 AUDIO
    TITLE "LR_black_phrase_A09_054"
    INDEX 01 01:07:24
  TRACK 55 AUDIO
    TITLE "LR_black_phrase_A09_055"
    INDEX 01 01:10:09
  TRACK 56 AUDIO
    TITLE "LR_black_phrase_A09_056"
    INDEX 01 01:11:06
  TRACK 57 AUDIO
    TITLE "LR_black_phrase_A09_057"
    INDEX 01 01:13:56
  TRACK 58 AUDIO
    TITLE "LR_black_phrase_A09_058"
    INDEX 01 01:14:13
  TRACK 59 AUDIO
    TITLE "LR_black_phrase_A09_059"
    INDEX 01 01:16:60
  TRACK 60 AUDIO
    TITLE "LR_black_phrase_A09_060"
    INDEX 01 01:17:13
  TRACK 61 AUDIO
    TITLE "LR_black_phrase_A09_061"
    INDEX 01 01:19:63
  TRACK 62 AUDIO
    TITLE "LR_black_phrase_A09_062"
    INDEX 01 01:20:64
  TRACK 63 AUDIO
    TITLE "LR_black_phrase_A09_063"
    INDEX 01 01:22:12
  TRACK 64 AUDIO
    TITLE "LR_black_phrase_A09_064"
    INDEX 01 01:22:47
  TRACK 65 AUDIO
    TITLE "LR_black_phrase_A09_065"
    INDEX 01 01:23:53
  TRACK 66 AUDIO
    TITLE "LR_black_phrase_A09_066"
    INDEX 01 01:24:52
  TRACK 67 AUDIO
    TITLE "LR_black_phrase_A09_067"
    INDEX 01 01:26:45
  TRACK 68 AUDIO
    TITLE "LR_black_phrase_A09_068"
    INDEX 01 01:27:04
  TRACK 69 AUDIO
    TITLE "LR_black_phrase_A09_069"
    INDEX 01 01:28:62
  TRACK 70 AUDIO
    TITLE "LR_black_phrase_A09_070"
    INDEX 01 01:29:06
  TRACK 71 AUDIO
    TITLE "LR_black_phrase_A09_071"
    INDEX 01 01:30:66
  TRACK 72 AUDIO
    TITLE "LR_black_phrase_A09_072"
    INDEX 01 01:31:72
  TRACK 73 AUDIO
    TITLE "LR_black_phrase_A09_073"
    INDEX 01 01:33:14
  TRACK 74 AUDIO
    TITLE "LR_black_phrase_A09_074"
    INDEX 01 01:33:55
  TRACK 75 AUDIO
    TITLE "LR_black_phrase_A09_075"
    INDEX 01 01:36:38
  TRACK 76 AUDIO
    TITLE "LR_black_phrase_A09_076"
    INDEX 01 01:37:35
  TRACK 77 AUDIO
    TITLE "LR_black_phrase_A09_077"
    INDEX 01 01:39:34
  TRACK 78 AUDIO
    TITLE "LR_black_phrase_A09_078"
    INDEX 01 01:39:73
  TRACK 79 AUDIO
    TITLE "LR_black_phrase_A09_079"
    INDEX 01 01:41:68
  TRACK 80 AUDIO
    TITLE "LR_black_phrase_A09_080"
    INDEX 01 01:42:19
  TRACK 81 AUDIO
    TITLE "LR_black_phrase_A09_081"
    INDEX 01 01:44:16
  TRACK 82 AUDIO
    TITLE "LR_black_phrase_A09_082"
    INDEX 01 01:45:17
  TRACK 83 AUDIO
    TITLE "LR_black_phrase_A09_083"
    INDEX 01 01:46:26
  TRACK 84 AUDIO
    TITLE "LR_black_phrase_A09_084"
    INDEX 01 01:46:66
  TRACK 85 AUDIO
    TITLE "LR_black_phrase_A09_085"
    INDEX 01 01:49:11
  TRACK 86 AUDIO
    TITLE "LR_black_phrase_A09_086"
    INDEX 01 01:50:12
  TRACK 87 AUDIO
    TITLE "LR_black_phrase_A09_087"
    INDEX 01 01:51:63
  TRACK 88 AUDIO
    TITLE "LR_black_phrase_A09_088"
    INDEX 01 01:52:27
  TRACK 89 AUDIO
    TITLE "LR_black_phrase_A09_089"
    INDEX 01 01:54:08
  TRACK 90 AUDIO
    TITLE "LR_black_phrase_A09_090"
    INDEX 01 01:54:40
  TRACK 91 AUDIO
    TITLE "LR_black_phrase_A09_091"
    INDEX 01 01:56:23
  TRACK 92 AUDIO
    TITLE "LR_black_phrase_A09_092"
    INDEX 01 01:57:22
  TRACK 93 AUDIO
    TITLE "LR_black_phrase_A09_093"
    INDEX 01 01:58:45
  TRACK 94 AUDIO
    TITLE "LR_black_phrase_A09_094"
    INDEX 01 01:59:09
  TRACK 95 AUDIO
    TITLE "LR_black_phrase_A09_095"
    INDEX 01 02:01:65
  TRACK 96 AUDIO
    TITLE "LR_black_phrase_A09_096"
    INDEX 01 02:02:65
  TRACK 97 AUDIO
    TITLE "LR_black_phrase_A09_097"
    INDEX 01 02:05:12
  TRACK 98 AUDIO
    TITLE "LR_black_phrase_A09_098"
    INDEX 01 02:05:53
  TRACK 99 AUDIO
    TITLE "LR_black_phrase_A09_099"
    INDEX 01 02:08:22
  TRACK 100 AUDIO
    TITLE "LR_black_phrase_A09_100"
    INDEX 01 02:08:49
  TRACK 101 AUDIO
    TITLE "LR_black_phrase_A09_101"
    INDEX 01 02:11:16
  TRACK 102 AUDIO
    TITLE "LR_black_phrase_A09_102"
    INDEX 01 02:12:12
  TRACK 103 AUDIO
    TITLE "LR_black_phrase_A09_103"
    INDEX 01 02:13:37
  TRACK 104 AUDIO
    TITLE "LR_black_phrase_A09_104"
    INDEX 01 02:13:74
  TRACK 105 AUDIO
    TITLE "LR_black_phrase_A09_105"
    INDEX 01 02:16:43
  TRACK 106 AUDIO
    TITLE "LR_black_phrase_A09_106"
    INDEX 01 02:17:43
  TRACK 107 AUDIO
    TITLE "LR_black_phrase_A09_107"
    INDEX 01 02:19:63
  TRACK 108 AUDIO
    TITLE "LR_black_phrase_A09_108"
    INDEX 01 02:20:19
  TRACK 109 AUDIO
    TITLE "LR_black_phrase_A09_109"
    INDEX 01 02:23:22
  TRACK 110 AUDIO
    TITLE "LR_black_phrase_A09_110"
    INDEX 01 02:23:41
  TRACK 111 AUDIO
    TITLE "LR_black_phrase_A09_111"
    INDEX 01 02:26:43
  TRACK 112 AUDIO
    TITLE "LR_black_phrase_A09_112"
    INDEX 01 02:27:39
  TRACK 113 AUDIO
    TITLE "LR_black_phrase_A09_113"
    INDEX 01 02:28:50
  TRACK 114 AUDIO
    TITLE "LR_black_phrase_A09_114"
    INDEX 01 02:29:14
  TRACK 115 AUDIO
    TITLE "LR_black_phrase_A09_115"
    INDEX 01 02:32:26
  TRACK 116 AUDIO
    TITLE "LR_black_phrase_A09_116"
    INDEX 01 02:33:24
  TRACK 117 AUDIO
    TITLE "LR_black_phrase_A09_117"
    INDEX 01 02:35:25
  TRACK 118 AUDIO
    TITLE "LR_black_phrase_A09_118"
    INDEX 01 02:35:62
  TRACK 119 AUDIO
    TITLE "LR_black_phrase_A09_119"
    INDEX 01 02:37:43
  TRACK 120 AUDIO
    TITLE "LR_black_phrase_A09_120"
    INDEX 01 02:37:69
  TRACK 121 AUDIO
    TITLE "LR_black_phrase_A09_121"
    INDEX 01 02:39:48
  TRACK 122 AUDIO
    TITLE "LR_black_phrase_A09_122"
    INDEX 01 02:40:49
  TRACK 123 AUDIO
    TITLE "LR_black_phrase_A09_123"
    INDEX 01 02:41:70
  TRACK 124 AUDIO
    TITLE "LR_black_phrase_A09_124"
    INDEX 01 02:42:35
  TRACK 125 AUDIO
    TITLE "LR_black_phrase_A09_125"
    INDEX 01 02:45:06
  TRACK 126 AUDIO
    TITLE "LR_black_phrase_A09_126"
    INDEX 01 02:46:05
  TRACK 127 AUDIO
    TITLE "LR_black_phrase_A09_127"
    INDEX 01 02:48:16
  TRACK 128 AUDIO
    TITLE "LR_black_phrase_A09_128"
    INDEX 01 02:48:55
  TRACK 129 AUDIO
    TITLE "LR_black_phrase_A09_129"
    INDEX 01 02:50:73
  TRACK 130 AUDIO
    TITLE "LR_black_phrase_A09_130"
    INDEX 01 02:51:28
  TRACK 131 AUDIO
    TITLE "LR_black_phrase_A09_131"
    INDEX 01 02:53:46
  TRACK 132 AUDIO
    TITLE "LR_black_phrase_A09_132"
    INDEX 01 02:54:50
  TRACK 133 AUDIO
    TITLE "LR_black_phrase_A09_133"
    INDEX 01 02:56:03
  TRACK 134 AUDIO
    TITLE "LR_black_phrase_A09_134"
    INDEX 01 02:56:43
  TRACK 135 AUDIO
    TITLE "LR_black_phrase_A09_135"
    INDEX 01 02:57:75
  TRACK 136 AUDIO
    TITLE "LR_black_phrase_A09_136"
    INDEX 01 02:59:06
  TRACK 137 AUDIO
    TITLE "LR_black_phrase_A09_137"
    INDEX 01 03:02:14
  TRACK 138 AUDIO
    TITLE "LR_black_phrase_A09_138"
    INDEX 01 03:02:51
  TRACK 139 AUDIO
    TITLE "LR_black_phrase_A09_139"
    INDEX 01 03:06:47
  TRACK 140 AUDIO
    TITLE "LR_black_phrase_A09_140"
    INDEX 01 03:06:74
  TRACK 141 AUDIO
    TITLE "LR_black_phrase_A09_141"
    INDEX 01 03:10:70
  TRACK 142 AUDIO
    TITLE "LR_black_phrase_A09_142"
    INDEX 01 03:12:01
  TRACK 143 AUDIO
    TITLE "LR_black_phrase_A09_143"
    INDEX 01 03:13:14
  TRACK 144 AUDIO
    TITLE "LR_black_phrase_A09_144"
    INDEX 01 03:13:53
  TRACK 145 AUDIO
    TITLE "LR_black_phrase_A09_145"
    INDEX 01 03:16:36
  TRACK 146 AUDIO
    TITLE "LR_black_phrase_A09_146"
    INDEX 01 03:17:35
  TRACK 147 AUDIO
    TITLE "LR_black_phrase_A09_147"
    INDEX 01 03:19:20
  TRACK 148 AUDIO
    TITLE "LR_black_phrase_A09_148"
    INDEX 01 03:19:61
  TRACK 149 AUDIO
    TITLE "LR_black_phrase_A09_149"
    INDEX 01 03:21:48
  TRACK 150 AUDIO
    TITLE "LR_black_phrase_A09_150"
    INDEX 01 03:22:05
  TRACK 151 AUDIO
    TITLE "LR_black_phrase_A09_151"
    INDEX 01 03:23:67
  TRACK 152 AUDIO
    TITLE "LR_black_phrase_A09_152"
    INDEX 01 03:24:72
  TRACK 153 AUDIO
    TITLE "LR_black_phrase_A09_153"
    INDEX 01 03:26:14
  TRACK 154 AUDIO
    TITLE "LR_black_phrase_A09_154"
    INDEX 01 03:26:50
  TRACK 155 AUDIO
    TITLE "LR_black_phrase_A09_155"
    INDEX 01 03:30:32
  TRACK 156 AUDIO
    TITLE "LR_black_phrase_A09_156"
    INDEX 01 03:31:37
  TRACK 157 AUDIO
    TITLE "LR_black_phrase_A09_157"
    INDEX 01 03:33:18
  TRACK 158 AUDIO
    TITLE "LR_black_phrase_A09_158"
    INDEX 01 03:33:54
  TRACK 159 AUDIO
    TITLE "LR_black_phrase_A09_159"
    INDEX 01 03:36:07
  TRACK 160 AUDIO
    TITLE "LR_black_phrase_A09_160"
    INDEX 01 03:36:26
  TRACK 161 AUDIO
    TITLE "LR_black_phrase_A09_161"
    INDEX 01 03:38:57
  TRACK 162 AUDIO
    TITLE "LR_black_phrase_A09_162"
    INDEX 01 03:39:52
  TRACK 163 AUDIO
    TITLE "LR_black_phrase_A09_163"
    INDEX 01 03:40:69
  TRACK 164 AUDIO
    TITLE "LR_black_phrase_A09_164"
    INDEX 01 03:41:33
  TRACK 165 AUDIO
    TITLE "LR_black_phrase_A09_165"
    INDEX 01 03:43:68
  TRACK 166 AUDIO
    TITLE "LR_black_phrase_A09_166"
    INDEX 01 03:44:67
  TRACK 167 AUDIO
    TITLE "LR_black_phrase_A09_167"
    INDEX 01 03:46:33
  TRACK 168 AUDIO
    TITLE "LR_black_phrase_A09_168"
    INDEX 01 03:46:66
  TRACK 169 AUDIO
    TITLE "LR_black_phrase_A09_169"
    INDEX 01 03:49:02
  TRACK 170 AUDIO
    TITLE "LR_black_phrase_A09_170"
    INDEX 01 03:49:27
  TRACK 171 AUDIO
    TITLE "LR_black_phrase_A09_171"
    INDEX 01 03:51:34
  TRACK 172 AUDIO
    TITLE "LR_black_phrase_A09_172"
    INDEX 01 03:52:31
  TRACK 173 AUDIO
    TITLE "LR_black_phrase_A09_173"
    INDEX 01 03:53:62
  TRACK 174 AUDIO
    TITLE "LR_black_phrase_A09_174"
    INDEX 01 03:54:24
  TRACK 175 AUDIO
    TITLE "LR_black_phrase_A09_175"
    INDEX 01 03:57:44
  TRACK 176 AUDIO
    TITLE "LR_black_phrase_A09_176"
    INDEX 01 03:58:44
  TRACK 177 AUDIO
    TITLE "LR_black_phrase_A09_177"
    INDEX 01 04:00:52
  TRACK 178 AUDIO
    TITLE "LR_black_phrase_A09_178"
    INDEX 01 04:01:15
  TRACK 179 AUDIO
    TITLE "LR_black_phrase_A09_179"
    INDEX 01 04:03:08
  TRACK 180 AUDIO
    TITLE "LR_black_phrase_A09_180"
    INDEX 01 04:03:27
  TRACK 181 AUDIO
    TITLE "LR_black_phrase_A09_181"
    INDEX 01 04:05:22
  TRACK 182 AUDIO
    TITLE "LR_black_phrase_A09_182"
    INDEX 01 04:06:22
  TRACK 183 AUDIO
    TITLE "LR_black_phrase_A09_183"
    INDEX 01 04:07:39
  TRACK 184 AUDIO
    TITLE "LR_black_phrase_A09_184"
    INDEX 01 04:08:03
  TRACK 185 AUDIO
    TITLE "LR_black_phrase_A09_185"
    INDEX 01 04:10:37
  TRACK 186 AUDIO
    TITLE "LR_black_phrase_A09_186"
    INDEX 01 04:11:35
  TRACK 187 AUDIO
    TITLE "LR_black_phrase_A09_187"
    INDEX 01 04:13:43
  TRACK 188 AUDIO
    TITLE "LR_black_phrase_A09_188"
    INDEX 01 04:14:09
  TRACK 189 AUDIO
    TITLE "LR_black_phrase_A09_189"
    INDEX 01 04:16:51
  TRACK 190 AUDIO
    TITLE "LR_black_phrase_A09_190"
    INDEX 01 04:17:08
  TRACK 191 AUDIO
    TITLE "LR_black_phrase_A09_191"
    INDEX 01 04:19:50
  TRACK 192 AUDIO
    TITLE "LR_black_phrase_A09_192"
    INDEX 01 04:20:55
  TRACK 193 AUDIO
    TITLE "LR_black_phrase_A09_193"
    INDEX 01 04:22:01
  TRACK 194 AUDIO
    TITLE "LR_black_phrase_A09_194"
    INDEX 01 04:22:42
  TRACK 195 AUDIO
    TITLE "LR_black_phrase_A09_195"
    INDEX 01 04:24:72
  TRACK 196 AUDIO
    TITLE "LR_black_phrase_A09_196"
    INDEX 01 04:25:70
  TRACK 197 AUDIO
    TITLE "LR_black_phrase_A09_197"
    INDEX 01 04:28:19
  TRACK 198 AUDIO
    TITLE "LR_black_phrase_A09_198"
    INDEX 01 04:28:61
  TRACK 199 AUDIO
    TITLE "LR_black_phrase_A09_199"
    INDEX 01 04:31:26
  TRACK 200 AUDIO
    TITLE "LR_black_phrase_A09_200"
    INDEX 01 04:31:55
  TRACK 201 AUDIO
    TITLE "LR_black_phrase_A09_201"
    INDEX 01 04:34:20
  TRACK 202 AUDIO
    TITLE "LR_black_phrase_A09_202"
    INDEX 01 04:35:25
  TRACK 203 AUDIO
    TITLE "LR_black_phrase_A09_203"
    INDEX 01 04:36:37
  TRACK 204 AUDIO
    TITLE "LR_black_phrase_A09_204"
    INDEX 01 04:37:03
  TRACK 205 AUDIO
    TITLE "LR_black_phrase_A09_205"
    INDEX 01 04:39:52
  TRACK 206 AUDIO
    TITLE "LR_black_phrase_A09_206"
    INDEX 01 04:40:52
  TRACK 207 AUDIO
    TITLE "LR_black_phrase_A09_207"
    INDEX 01 04:42:74
  TRACK 208 AUDIO
    TITLE "LR_black_phrase_A09_208"
    INDEX 01 04:43:37
  TRACK 209 AUDIO
    TITLE "LR_black_phrase_A09_209"
    INDEX 01 04:46:17
  TRACK 210 AUDIO
    TITLE "LR_black_phrase_A09_210"
    INDEX 01 04:46:47
  TRACK 211 AUDIO
    TITLE "LR_black_phrase_A09_211"
    INDEX 01 04:49:27
  TRACK 212 AUDIO
    TITLE "LR_black_phrase_A09_212"
    INDEX 01 04:50:27
  TRACK 213 AUDIO
    TITLE "LR_black_phrase_A09_213"
    INDEX 01 04:51:65
  TRACK 214 AUDIO
    TITLE "LR_black_phrase_A09_214"
    INDEX 01 04:52:34
  TRACK 215 AUDIO
    TITLE "LR_black_phrase_A09_215"
    INDEX 01 04:55:61
  TRACK 216 AUDIO
    TITLE "LR_black_phrase_A09_216"
    INDEX 01 04:56:59
  TRACK 217 AUDIO
    TITLE "LR_black_phrase_A09_217"
    INDEX 01 04:59:30
  TRACK 218 AUDIO
    TITLE "LR_black_phrase_A09_218"
    INDEX 01 04:59:67
  TRACK 219 AUDIO
    TITLE "LR_black_phrase_A09_219"
    INDEX 01 05:02:05
  TRACK 220 AUDIO
    TITLE "LR_black_phrase_A09_220"
    INDEX 01 05:02:26
  TRACK 221 AUDIO
    TITLE "LR_black_phrase_A09_221"
    INDEX 01 05:04:39
  TRACK 222 AUDIO
    TITLE "LR_black_phrase_A09_222"
    INDEX 01 05:05:36
  TRACK 223 AUDIO
    TITLE "LR_black_phrase_A09_223"
    INDEX 01 05:06:61
  TRACK 224 AUDIO
    TITLE "LR_black_phrase_A09_224"
    INDEX 01 05:07:19
  TRACK 225 AUDIO
    TITLE "LR_black_phrase_A09_225"
    INDEX 01 05:09:38
  TRACK 226 AUDIO
    TITLE "LR_black_phrase_A09_226"
    INDEX 01 05:10:37
  TRACK 227 AUDIO
    TITLE "LR_black_phrase_A09_227"
    INDEX 01 05:12:50
  TRACK 228 AUDIO
    TITLE "LR_black_phrase_A09_228"
    INDEX 01 05:13:06
  TRACK 229 AUDIO
    TITLE "LR_black_phrase_A09_229"
    INDEX 01 05:15:11
  TRACK 230 AUDIO
    TITLE "LR_black_phrase_A09_230"
    INDEX 01 05:15:33
  TRACK 231 AUDIO
    TITLE "LR_black_phrase_A09_231"
    INDEX 01 05:17:37
  TRACK 232 AUDIO
    TITLE "LR_black_phrase_A09_232"
    INDEX 01 05:18:33
  TRACK 233 AUDIO
    TITLE "LR_black_phrase_A09_233"
    INDEX 01 05:19:28
  TRACK 234 AUDIO
    TITLE "LR_black_phrase_A09_234"
    INDEX 01 05:19:64
  TRACK 235 AUDIO
    TITLE "LR_black_phrase_A09_235"
    INDEX 01 05:22:70
  TRACK 236 AUDIO
    TITLE "LR_black_phrase_A09_236"
    INDEX 01 05:23:67
  TRACK 237 AUDIO
    TITLE "LR_black_phrase_A09_237"
    INDEX 01 05:25:51
  TRACK 238 AUDIO
    TITLE "LR_black_phrase_A09_238"
    INDEX 01 05:26:11
  TRACK 239 AUDIO
    TITLE "LR_black_phrase_A09_239"
    INDEX 01 05:27:75
  TRACK 240 AUDIO
    TITLE "LR_black_phrase_A09_240"
    INDEX 01 05:28:24
  TRACK 241 AUDIO
    TITLE "LR_black_phrase_A09_241"
    INDEX 01 05:30:13
  TRACK 242 AUDIO
    TITLE "LR_black_phrase_A09_242"
    INDEX 01 05:31:16
  TRACK 243 AUDIO
    TITLE "LR_black_phrase_A09_243"
    INDEX 01 05:32:29
  TRACK 244 AUDIO
    TITLE "LR_black_phrase_A09_244"
    INDEX 01 05:32:66
  TRACK 245 AUDIO
    TITLE "LR_black_phrase_A09_245"
    INDEX 01 05:35:49
  TRACK 246 AUDIO
    TITLE "LR_black_phrase_A09_246"
    INDEX 01 05:36:50
  TRACK 247 AUDIO
    TITLE "LR_black_phrase_A09_247"
    INDEX 01 05:39:23
  TRACK 248 AUDIO
    TITLE "LR_black_phrase_A09_248"
    INDEX 01 05:39:63
  TRACK 249 AUDIO
    TITLE "LR_black_phrase_A09_249"
    INDEX 01 05:42:43
  TRACK 250 AUDIO
    TITLE "LR_black_phrase_A09_250"
    INDEX 01 05:42:73
  TRACK 251 AUDIO
    TITLE "LR_black_phrase_A09_251"
    INDEX 01 05:45:53
  TRACK 252 AUDIO
    TITLE "LR_black_phrase_A09_252"
    INDEX 01 05:46:57
  TRACK 253 AUDIO
    TITLE "LR_black_phrase_A09_253"
    INDEX 01 05:48:05
  TRACK 254 AUDIO
    TITLE "LR_black_phrase_A09_254"
    INDEX 01 05:48:44
  TRACK 255 AUDIO
    TITLE "LR_black_phrase_A09_255"
    INDEX 01 05:51:23
  TRACK 256 AUDIO
    TITLE "LR_black_phrase_A09_256"
    INDEX 01 05:52:18
  TRACK 257 AUDIO
    TITLE "LR_black_phrase_A09_257"
    INDEX 01 05:55:09
  TRACK 258 AUDIO
    TITLE "LR_black_phrase_A09_258"
    INDEX 01 05:55:48
  TRACK 259 AUDIO
    TITLE "LR_black_phrase_A09_259"
    INDEX 01 05:58:21
  TRACK 260 AUDIO
    TITLE "LR_black_phrase_A09_260"
    INDEX 01 05:58:52
  TRACK 261 AUDIO
    TITLE "LR_black_phrase_A09_261"
    INDEX 01 06:01:23
  TRACK 262 AUDIO
    TITLE "LR_black_phrase_A09_262"
    INDEX 01 06:02:26
  TRACK 263 AUDIO
    TITLE "LR_black_phrase_A09_263"
    INDEX 01 06:03:39
  TRACK 264 AUDIO
    TITLE "LR_black_phrase_A09_264"
    INDEX 01 06:04:02
  TRACK 265 AUDIO
    TITLE "LR_black_phrase_A09_265"
    INDEX 01 06:05:29
  TRACK 266 AUDIO
    TITLE "LR_black_phrase_A09_266"
    INDEX 01 06:06:28
  TRACK 267 AUDIO
    TITLE "LR_black_phrase_A09_267"
    INDEX 01 06:09:30
  TRACK 268 AUDIO
    TITLE "LR_black_phrase_A09_268"
    INDEX 01 06:09:71
  TRACK 269 AUDIO
    TITLE "LR_black_phrase_A09_269"
    INDEX 01 06:12:11
  TRACK 270 AUDIO
    TITLE "LR_black_phrase_A09_270"
    INDEX 01 06:12:40
  TRACK 271 AUDIO
    TITLE "LR_black_phrase_A09_271"
    INDEX 01 06:14:53
  TRACK 272 AUDIO
    TITLE "LR_black_phrase_A09_272"
    INDEX 01 06:15:49
  TRACK 273 AUDIO
    TITLE "LR_black_phrase_A09_273"
    INDEX 01 06:16:66
  TRACK 274 AUDIO
    TITLE "LR_black_phrase_A09_274"
    INDEX 01 06:17:28
  TRACK 275 AUDIO
    TITLE "LR_black_phrase_A09_275"
    INDEX 01 06:19:60
  TRACK 276 AUDIO
    TITLE "LR_black_phrase_A09_276"
    INDEX 01 06:20:60
  TRACK 277 AUDIO
    TITLE "LR_black_phrase_A09_277"
    INDEX 01 06:22:23
  TRACK 278 AUDIO
    TITLE "LR_black_phrase_A09_278"
    INDEX 01 06:22:55
  TRACK 279 AUDIO
    TITLE "LR_black_phrase_A09_279"
    INDEX 01 06:24:67
  TRACK 280 AUDIO
    TITLE "LR_black_phrase_A09_280"
    INDEX 01 06:25:14
  TRACK 281 AUDIO
    TITLE "LR_black_phrase_A09_281"
    INDEX 01 06:27:24
  TRACK 282 AUDIO
    TITLE "LR_black_phrase_A09_282"
    INDEX 01 06:28:22
  TRACK 283 AUDIO
    TITLE "LR_black_phrase_A09_283"
    INDEX 01 06:29:51
  TRACK 284 AUDIO
    TITLE "LR_black_phrase_A09_284"
    INDEX 01 06:30:11
  TRACK 285 AUDIO
    TITLE "LR_black_phrase_A09_285"
    INDEX 01 06:32:31
  TRACK 286 AUDIO
    TITLE "LR_black_phrase_A09_286"
    INDEX 01 06:33:25
  TRACK 287 AUDIO
    TITLE "LR_black_phrase_A09_287"
    INDEX 01 06:35:30
  TRACK 288 AUDIO
    TITLE "LR_black_phrase_A09_288"
    INDEX 01 06:35:65
  TRACK 289 AUDIO
    TITLE "LR_black_phrase_A09_289"
    INDEX 01 06:38:05
  TRACK 290 AUDIO
    TITLE "LR_black_phrase_A09_290"
    INDEX 01 06:38:22
  TRACK 291 AUDIO
    TITLE "LR_black_phrase_A09_291"
    INDEX 01 06:40:37
  TRACK 292 AUDIO
    TITLE "LR_black_phrase_A09_292"
    INDEX 01 06:41:30
  TRACK 293 AUDIO
    TITLE "LR_black_phrase_A09_293"
    INDEX 01 06:42:49
  TRACK 294 AUDIO
    TITLE "LR_black_phrase_A09_294"
    INDEX 01 06:43:12
  TRACK 295 AUDIO
    TITLE "LR_black_phrase_A09_295"
    INDEX 01 06:45:59
  TRACK 296 AUDIO
    TITLE "LR_black_phrase_A09_296"
    INDEX 01 06:46:61
  TRACK 297 AUDIO
    TITLE "LR_black_phrase_A09_297"
    INDEX 01 06:48:40
  TRACK 298 AUDIO
    TITLE "LR_black_phrase_A09_298"
    INDEX 01 06:48:75
  TRACK 299 AUDIO
    TITLE "LR_black_phrase_A09_299"
    INDEX 01 06:51:21
  TRACK 300 AUDIO
    TITLE "LR_black_phrase_A09_300"
    INDEX 01 06:51:42
  TRACK 301 AUDIO
    TITLE "LR_black_phrase_A09_301"
    INDEX 01 06:53:63
